<mxfile host="app.diagrams.net" modified="2021-01-27T08:58:06.284Z" agent="5.0 (Macintosh; Intel Mac OS X 10_15_7) AppleWebKit/537.36 (KHTML, like Gecko) Chrome/87.0.4280.88 Safari/537.36" etag="JqBZpoA5repayWmkr87L" version="14.2.7" type="github">
  <diagram id="wdWweVAmr9KfrNUESYks" name="Page-1">
    <mxGraphModel dx="652" dy="384" grid="1" gridSize="10" guides="1" tooltips="1" connect="1" arrows="1" fold="1" page="1" pageScale="1" pageWidth="4681" pageHeight="3300" math="0" shadow="0">
      <root>
        <mxCell id="0" />
        <mxCell id="1" parent="0" />
        <mxCell id="_F9NpdXsyHX_RJC9-hib-1" value="" style="verticalLabelPosition=bottom;verticalAlign=top;html=1;shadow=0;dashed=0;strokeWidth=1;shape=mxgraph.android.phone2;" vertex="1" parent="1">
          <mxGeometry x="380" y="110" width="210" height="380" as="geometry" />
        </mxCell>
        <mxCell id="_F9NpdXsyHX_RJC9-hib-17" value="&lt;b&gt;&lt;i&gt;MILAN FASHION WEEK&lt;br&gt;&lt;/i&gt;&lt;/b&gt;&lt;br&gt;Martedì 23 febbraio&lt;br&gt;9:00-19:00&lt;br&gt;&lt;br&gt;&lt;div style=&quot;text-align: right&quot;&gt;&lt;br&gt;&lt;/div&gt;" style="strokeWidth=1;html=1;shadow=0;dashed=0;shape=mxgraph.android.rrect;rSize=0;align=left;spacingLeft=10;fontSize=8;fillColor=#f5f5f5;strokeColor=#666666;" vertex="1" parent="1">
          <mxGeometry x="390" y="150" width="190" height="100" as="geometry" />
        </mxCell>
        <mxCell id="_F9NpdXsyHX_RJC9-hib-18" value="&lt;b&gt;&lt;i&gt;STREETWEAR EVENT&lt;br&gt;&lt;/i&gt;&lt;/b&gt;&lt;br&gt;Giovedì 25 febbraio&lt;br&gt;8:00-17:00" style="strokeWidth=1;html=1;shadow=0;dashed=0;shape=mxgraph.android.rrect;rSize=0;align=left;spacingLeft=10;fontSize=8;fillColor=#f5f5f5;strokeColor=#666666;" vertex="1" parent="1">
          <mxGeometry x="390" y="250" width="190" height="100" as="geometry" />
        </mxCell>
        <mxCell id="_F9NpdXsyHX_RJC9-hib-19" value="&lt;b&gt;&lt;i&gt;BACKSTAGE BOOKING&lt;br&gt;&lt;/i&gt;&lt;/b&gt;&lt;br&gt;Sabato 27 febbraio&lt;br&gt;13:00-18:00" style="strokeWidth=1;html=1;shadow=0;dashed=0;shape=mxgraph.android.rrect;rSize=0;align=left;spacingLeft=10;fontSize=8;fillColor=#f5f5f5;strokeColor=#666666;" vertex="1" parent="1">
          <mxGeometry x="390" y="350" width="190" height="100" as="geometry" />
        </mxCell>
        <mxCell id="_F9NpdXsyHX_RJC9-hib-20" value="" style="verticalLabelPosition=bottom;verticalAlign=top;html=1;shape=mxgraph.basic.star;strokeColor=#d6b656;fillColor=#fff2cc;" vertex="1" parent="1">
          <mxGeometry x="540" y="180" width="30" height="30" as="geometry" />
        </mxCell>
        <mxCell id="_F9NpdXsyHX_RJC9-hib-21" value="" style="verticalLabelPosition=bottom;verticalAlign=top;html=1;shape=mxgraph.basic.star;" vertex="1" parent="1">
          <mxGeometry x="540" y="285" width="30" height="30" as="geometry" />
        </mxCell>
        <mxCell id="_F9NpdXsyHX_RJC9-hib-22" value="" style="verticalLabelPosition=bottom;verticalAlign=top;html=1;shape=mxgraph.basic.star;strokeColor=#d6b656;fillColor=#fff2cc;" vertex="1" parent="1">
          <mxGeometry x="540" y="385" width="30" height="30" as="geometry" />
        </mxCell>
      </root>
    </mxGraphModel>
  </diagram>
</mxfile>
